<?xml version="1.0" standalone="no"?>
<!DOCTYPE svg PUBLIC "-//W3C//DTD SVG 20010904//EN"
 "http://www.w3.org/TR/2001/REC-SVG-20010904/DTD/svg10.dtd">
<svg version="1.0" xmlns="http://www.w3.org/2000/svg"
 width="32.000000pt" height="32.000000pt" viewBox="0 0 32.000000 32.000000"
 preserveAspectRatio="xMidYMid meet">

<g transform="translate(0.000000,32.000000) scale(0.100000,-0.100000)"
fill="#ffffff" stroke="none">
<path d="M100 160 c0 -82 3 -100 15 -100 11 0 15 11 15 39 0 39 1 40 37 43 52
4 56 28 4 28 -39 0 -41 2 -41 30 0 29 2 30 45 30 33 0 45 4 45 15 0 12 -13 15
-60 15 l-60 0 0 -100z"/>
</g>
</svg>
